<svg width="48" height="48" viewBox="0 0 48 48" fill="none" xmlns="http://www.w3.org/2000/svg">
<rect x="0.5" y="0.5" width="47" height="47" rx="9.5" fill="white"/>
<path d="M31.77 19.23L31.78 19.22L28.06 15.5L27 16.56L29.11 18.67C28.17 19.03 27.5 19.93 27.5 21C27.5 21.3283 27.5647 21.6534 27.6903 21.9567C27.8159 22.26 28.0001 22.5356 28.2322 22.7678C28.7011 23.2366 29.337 23.5 30 23.5C30.36 23.5 30.69 23.42 31 23.29V30.5C31 30.7652 30.8946 31.0196 30.7071 31.2071C30.5196 31.3946 30.2652 31.5 30 31.5C29.7348 31.5 29.4804 31.3946 29.2929 31.2071C29.1054 31.0196 29 30.7652 29 30.5V26C29 25.4696 28.7893 24.9609 28.4142 24.5858C28.0391 24.2107 27.5304 24 27 24H26V17C26 16.4696 25.7893 15.9609 25.4142 15.5858C25.0391 15.2107 24.5304 15 24 15H18C17.4696 15 16.9609 15.2107 16.5858 15.5858C16.2107 15.9609 16 16.4696 16 17V33H26V25.5H27.5V30.5C27.5 31.163 27.7634 31.7989 28.2322 32.2678C28.7011 32.7366 29.337 33 30 33C30.3283 33 30.6534 32.9353 30.9567 32.8097C31.26 32.6841 31.5356 32.4999 31.7678 32.2678C31.9999 32.0356 32.1841 31.76 32.3097 31.4567C32.4353 31.1534 32.5 30.8283 32.5 30.5V21C32.5 20.31 32.22 19.68 31.77 19.23ZM24 25.5V31H18V24H24V25.5ZM24 22H18V17H24V22ZM30 22C29.7348 22 29.4804 21.8946 29.2929 21.7071C29.1054 21.5196 29 21.2652 29 21C29 20.7348 29.1054 20.4804 29.2929 20.2929C29.4804 20.1054 29.7348 20 30 20C30.2652 20 30.5196 20.1054 30.7071 20.2929C30.8946 20.4804 31 20.7348 31 21C31 21.2652 30.8946 21.5196 30.7071 21.7071C30.5196 21.8946 30.2652 22 30 22Z" fill="#1B9CAA"/>
<rect x="0.5" y="0.5" width="47" height="47" rx="9.5" stroke="#1B9CAA"/>
</svg>
