<svg width="17" height="16" viewBox="0 0 17 16" fill="none" xmlns="http://www.w3.org/2000/svg">
<path d="M14.3479 6.77063L13.4359 4.03396C13.1633 3.21596 12.4013 2.66663 11.5393 2.66663H5.46059C4.59859 2.66663 3.83659 3.21596 3.56392 4.03396L2.65192 6.77063C2.17192 6.97263 1.83325 7.44729 1.83325 7.99996V11.3333C1.83325 11.8353 2.11525 12.268 2.52592 12.4953C2.51725 12.5393 2.49992 12.5793 2.49992 12.6253V14C2.49992 14.3686 2.79792 14.6666 3.16659 14.6666H3.83325C4.20192 14.6666 4.49992 14.3686 4.49992 14V12.6666H12.4999V14C12.4999 14.3686 12.7979 14.6666 13.1666 14.6666H13.8333C14.2019 14.6666 14.4999 14.3686 14.4999 14V12.6253C14.4999 12.5793 14.4826 12.5386 14.4739 12.4953C14.8846 12.268 15.1666 11.8353 15.1666 11.3333V7.99996C15.1666 7.44729 14.8279 6.97263 14.3479 6.77063ZM3.16659 11.3333V7.99996H13.8333L13.8346 11.3333H3.16659ZM5.46059 3.99996H11.5386C11.8259 3.99996 12.0806 4.18263 12.1713 4.45596L12.9086 6.66663H4.09125L4.82792 4.45596C4.91925 4.18263 5.17392 3.99996 5.46059 3.99996Z" fill="#33354D"/>
<path d="M4.83325 10.6666C5.38554 10.6666 5.83325 10.2189 5.83325 9.66663C5.83325 9.11434 5.38554 8.66663 4.83325 8.66663C4.28097 8.66663 3.83325 9.11434 3.83325 9.66663C3.83325 10.2189 4.28097 10.6666 4.83325 10.6666Z" fill="#0B0F19"/>
<path d="M12.1667 10.6666C12.719 10.6666 13.1667 10.2189 13.1667 9.66663C13.1667 9.11434 12.719 8.66663 12.1667 8.66663C11.6145 8.66663 11.1667 9.11434 11.1667 9.66663C11.1667 10.2189 11.6145 10.6666 12.1667 10.6666Z" fill="#0B0F19"/>
</svg>
