<svg width="24" height="24" viewBox="0 0 24 24" fill="none" xmlns="http://www.w3.org/2000/svg">
<path d="M19.3125 14.0686C19.8303 14.0686 20.25 14.4883 20.25 15.0061V16.1311C20.25 16.6489 19.8303 17.0686 19.3125 17.0686H17.1562C16.6384 17.0686 16.2188 16.6489 16.2188 16.1311V15.0061C16.2188 14.4883 16.6384 14.0686 17.1562 14.0686H19.3125ZM22.125 12.3811V9.5686H1.875V17.0629C1.875 18.0967 2.71619 18.9379 3.75 18.9379H20.25C21.2838 18.9379 22.125 18.0967 22.125 17.0629C22.125 16.5451 22.5447 16.1254 23.0625 16.1254C23.5803 16.1254 24 16.5451 24 17.0629C24 19.1307 22.3178 20.8129 20.25 20.8129H3.75C1.68219 20.8129 0 19.1307 0 17.0629V6.93793C0 4.87012 1.68219 3.18793 3.75 3.18793H20.25C22.3178 3.18793 24 4.87012 24 6.93793V12.3811C24 12.8989 23.5803 13.3186 23.0625 13.3186C22.5447 13.3186 22.125 12.8989 22.125 12.3811ZM22.125 7.6936V6.93793C22.125 5.90411 21.2838 5.06293 20.25 5.06293H3.75C2.71619 5.06293 1.875 5.90411 1.875 6.93793V7.6936H22.125ZM4.6875 11.4436C4.16968 11.4436 3.75 11.8633 3.75 12.3811C3.75 12.8989 4.16968 13.3186 4.6875 13.3186H12.4219C12.9397 13.3186 13.3594 12.8989 13.3594 12.3811C13.3594 11.8633 12.9397 11.4436 12.4219 11.4436H4.6875Z" fill="#FE9345"/>
</svg>
