<svg width="17" height="16" viewBox="0 0 17 16" fill="none" xmlns="http://www.w3.org/2000/svg">
<path d="M7.97933 2.25003L5.83333 4.9327L3.68733 2.25003C3.51 2.0287 3.212 1.94403 2.946 2.03736C2.67933 2.13136 2.5 2.38336 2.5 2.6667V12.6667C2.5 13.402 3.098 14 3.83333 14H13.1667C13.902 14 14.5 13.402 14.5 12.6667V2.6667C14.5 2.38336 14.3207 2.13136 14.054 2.03736C13.7873 1.94536 13.49 2.02936 13.3127 2.25003L11.1667 4.9327L9.02067 2.25003C8.76667 1.93403 8.23333 1.93403 7.97933 2.25003ZM3.83333 12.6667V11.3334H13.1673V12.6667H3.83333ZM10.646 6.4167C10.9 6.73336 11.434 6.73336 11.688 6.4167L13.1667 4.56736L13.1673 10H3.83333V4.56736L5.31267 6.4167C5.56667 6.73336 6.10067 6.73336 6.35467 6.4167L8.5 3.73403L10.646 6.4167Z" fill="#0B0F19"/>
</svg>
