<svg width="48" height="48" viewBox="0 0 48 48" fill="none" xmlns="http://www.w3.org/2000/svg">
<rect x="0.5" y="0.5" width="47" height="47" rx="9.5" fill="white"/>
<path d="M17.122 33C17.5 33.378 18.002 33.586 18.536 33.586C19.07 33.586 19.572 33.378 19.95 33L24.286 28.664C25.002 28.885 25.745 28.997 26.503 28.997C28.506 28.997 30.39 28.218 31.805 26.802C33.951 24.655 34.592 21.453 33.437 18.644L32.867 17.256L28.623 21.499L26.502 19.377L30.745 15.134L29.356 14.563C28.446 14.189 27.485 14 26.499 14C24.496 14 22.613 14.78 21.198 16.196C19.213 18.18 18.516 21.068 19.336 23.714L15 28.05C14.22 28.829 14.22 30.099 15 30.878L17.122 33ZM21.67 24.209L21.416 23.593C20.568 21.532 21.038 19.183 22.612 17.61C23.65 16.572 25.03 16 26.499 16C26.676 16 26.851 16.008 27.025 16.025L23.672 19.378L28.621 24.328L31.976 20.973C32.132 22.581 31.573 24.204 30.389 25.389C28.839 26.939 26.425 27.416 24.405 26.585L23.79 26.33L18.536 31.586H18.537L18.536 32.586V31.586L16.414 29.464L21.67 24.209Z" fill="#1B9CAA"/>
<rect x="0.5" y="0.5" width="47" height="47" rx="9.5" stroke="#1B9CAA"/>
</svg>
