<svg width="24" height="24" viewBox="0 0 24 24" fill="none" xmlns="http://www.w3.org/2000/svg">
<path d="M20 12.0001V10.2931C20 5.85106 16.521 2.13206 12.245 2.00306C10.041 1.95206 7.994 2.73906 6.429 4.25906C4.862 5.77906 4 7.81806 4 10.0001V12.0001C2.897 12.0001 2 12.8971 2 14.0001V18.0001C2 19.1031 2.897 20.0001 4 20.0001H6V10.0001C6 8.36306 6.646 6.83406 7.821 5.69406C8.995 4.55406 10.556 3.95506 12.184 4.00306C15.392 4.09906 18 6.92106 18 10.2931V20.0001H20C21.103 20.0001 22 19.1031 22 18.0001V14.0001C22 12.8971 21.103 12.0001 20 12.0001Z" fill="white"/>
<path d="M7 12.0001H9V20.0001H7V12.0001ZM15 12.0001H17V20.0001H15V12.0001Z" fill="white"/>
</svg>
