<svg width="25" height="24" viewBox="0 0 25 24" fill="none" xmlns="http://www.w3.org/2000/svg">
<path d="M12.6664 6C10.4974 6 8.73242 7.765 8.73242 9.934H10.7324C10.7324 8.867 11.6004 8 12.6664 8C13.7324 8 14.6004 8.867 14.6004 9.934C14.6004 10.532 14.1194 10.966 13.3844 11.56C13.1294 11.767 12.8884 11.964 12.6934 12.159C11.6954 13.156 11.6664 14.215 11.6664 14.333V15H13.6664L13.6654 14.367C13.6664 14.351 13.6984 13.981 14.1064 13.574C14.2564 13.424 14.4454 13.274 14.6414 13.116C15.4204 12.485 16.5994 11.532 16.5994 9.934C16.6004 7.765 14.8354 6 12.6664 6ZM11.6664 16H13.6664V18H11.6664V16Z" fill="white"/>
<path d="M12.6665 2C7.1525 2 2.6665 6.486 2.6665 12C2.6665 17.514 7.1525 22 12.6665 22C18.1805 22 22.6665 17.514 22.6665 12C22.6665 6.486 18.1805 2 12.6665 2ZM12.6665 20C8.2555 20 4.6665 16.411 4.6665 12C4.6665 7.589 8.2555 4 12.6665 4C17.0775 4 20.6665 7.589 20.6665 12C20.6665 16.411 17.0775 20 12.6665 20Z" fill="white"/>
</svg>
