<svg width="17" height="16" viewBox="0 0 17 16" fill="none" xmlns="http://www.w3.org/2000/svg">
<path fill-rule="evenodd" clip-rule="evenodd" d="M2 5.565C2 3.55648 3.77586 2 5.875 2C7.52065 2 8.96761 2.95661 9.516 4.33768C10.1104 4.02124 10.777 3.85559 11.4566 3.86C13.555 3.86079 15.33 5.41699 15.33 7.425C15.33 7.68181 15.1218 7.89 14.865 7.89H13.005C12.8817 7.89 12.7634 7.84101 12.6762 7.7538L12.385 7.46261L12.0938 7.7538C12.0066 7.84101 11.8883 7.89 11.765 7.89H10.4058C10.4892 8.24608 10.5681 8.62342 10.6346 9.01299C10.912 10.6374 11.0016 12.59 10.342 14.4039C10.2752 14.5877 10.1005 14.71 9.905 14.71H7.425C7.26964 14.71 7.12455 14.6324 7.03828 14.5032C6.95201 14.374 6.93597 14.2103 6.99552 14.0668C7.50233 12.8455 7.87068 11.7144 7.58903 10.3062C7.53866 10.0544 7.70198 9.80939 7.95381 9.75903C8.20563 9.70866 8.4506 9.87198 8.50097 10.1238C8.78248 11.5313 8.50965 12.7016 8.10917 13.78H9.57088C10.0393 12.2664 9.96621 10.624 9.71788 9.16951C9.59613 8.45637 9.43803 7.81214 9.28569 7.25732L4.98899 11.5602C4.90168 11.6477 4.78311 11.6969 4.65948 11.6968C4.53585 11.6967 4.41735 11.6474 4.33016 11.5598C2.91308 10.1354 3.06234 7.78205 4.548 6.2964C4.6457 6.19869 4.74718 6.10673 4.85191 6.02059C4.76328 6.00248 4.68112 5.95873 4.6162 5.8938L4.325 5.60261L4.0338 5.8938C3.9466 5.98101 3.82833 6.03 3.705 6.03H2.465C2.20819 6.03 2 5.82181 2 5.565ZM7.1703 6.03H7.425C7.44737 6.03 7.46937 6.02842 7.4909 6.02537C7.958 6.04569 8.40653 6.18513 8.78774 6.44005L4.69298 10.5402C4.011 9.51104 4.15713 8.00248 5.2056 6.954C5.77586 6.38375 6.48104 6.07952 7.1703 6.03ZM8.81365 5.39232C8.29105 5.15768 7.71755 5.06265 7.14281 5.1H5.13761L4.6538 4.61619C4.47221 4.4346 4.17779 4.4346 3.9962 4.61619L3.51239 5.1H2.97645C3.21958 3.89363 4.39107 2.93 5.875 2.93C7.47704 2.93 8.71493 4.05314 8.81365 5.39232ZM10.1682 6.96H11.5724L12.0562 6.4762C12.2378 6.2946 12.5322 6.2946 12.7138 6.4762L13.1976 6.96H14.3535C14.1104 5.75363 12.9389 4.79 11.455 4.79H11.4518C10.8434 4.78581 10.2485 4.95823 9.73831 5.28405C9.74439 5.35676 9.74813 5.43015 9.74946 5.50418C9.7866 5.64557 9.84162 5.83158 9.90747 6.05421C9.98354 6.31139 10.0741 6.61744 10.1682 6.96Z" fill="#0B0F19"/>
</svg>
