<svg width="20" height="20" viewBox="0 0 20 20" fill="none" xmlns="http://www.w3.org/2000/svg">
<path d="M3.33543 17.5C3.40293 17.5 3.47043 17.4916 3.53709 17.475L6.87043 16.6416C7.01709 16.605 7.15126 16.5291 7.25793 16.4225L17.5021 6.1783C17.8171 5.8633 17.9904 5.44497 17.9904 4.99997C17.9904 4.55497 17.8171 4.13663 17.5021 3.82163L16.1804 2.49997C15.5504 1.86997 14.4538 1.86997 13.8238 2.49997L3.57959 12.7441C3.47293 12.8508 3.39709 12.985 3.36043 13.1308L2.52709 16.4641C2.45543 16.7483 2.53959 17.0483 2.74626 17.2558C2.90376 17.4141 3.11709 17.5 3.33543 17.5ZM15.0021 3.6783L16.3238 4.99997L15.0021 6.32163L13.6804 4.99997L15.0021 3.6783ZM4.92126 13.7591L12.5021 6.1783L13.8238 7.49997L6.24209 15.0808L4.48043 15.5208L4.92126 13.7591Z" fill="#1B9CAA"/>
</svg>
