<svg width="48" height="48" viewBox="0 0 48 48" fill="none" xmlns="http://www.w3.org/2000/svg">
<rect x="0.5" y="0.5" width="47" height="47" rx="9.5" fill="white"/>
<path d="M24 16C19.589 16 16 19.589 16 24C16 28.411 19.589 32 24 32C28.411 32 32 28.411 32 24C32 19.589 28.411 16 24 16ZM25 28.915V30H23V28.92C20.661 28.553 20 26.918 20 26H22C22.011 26.143 22.159 27 24 27C25.38 27 26 26.415 26 26C26 25.676 26 25 24 25C20.52 25 20 23.12 20 22C20 20.712 21.029 19.416 23 19.085V18.012H25V19.121C26.734 19.531 27.4 20.974 27.4 22H26.4L25.4 22.018C25.386 21.638 25.185 21 24 21C22.701 21 22 21.516 22 22C22 22.374 22 23 24 23C27.48 23 28 24.88 28 26C28 27.288 26.971 28.584 25 28.915Z" fill="white"/>
<path d="M24 14C18.486 14 14 18.486 14 24C14 29.514 18.486 34 24 34C29.514 34 34 29.514 34 24C34 18.486 29.514 14 24 14ZM24 32C19.589 32 16 28.411 16 24C16 19.589 19.589 16 24 16C28.411 16 32 19.589 32 24C32 28.411 28.411 32 24 32Z" fill="#1B9CAA"/>
<path d="M24 23C22 23 22 22.374 22 22C22 21.516 22.701 21 24 21C25.185 21 25.386 21.638 25.4 22.018L26.4 22H27.4C27.4 20.974 26.734 19.531 25 19.121V18.012H23V19.085C21.029 19.416 20 20.712 20 22C20 23.12 20.52 25 24 25C26 25 26 25.676 26 26C26 26.415 25.38 27 24 27C22.159 27 22.011 26.143 22 26H20C20 26.918 20.661 28.553 23 28.92V30H25V28.915C26.971 28.584 28 27.288 28 26C28 24.88 27.48 23 24 23Z" fill="#1B9CAA"/>
<rect x="0.5" y="0.5" width="47" height="47" rx="9.5" stroke="#1B9CAA"/>
</svg>
