<svg width="24" height="24" viewBox="0 0 24 24" fill="none" xmlns="http://www.w3.org/2000/svg">
<g clip-path="url(#clip0_303_2669)">
<path d="M11.9539 24C11.8102 24 11.6666 23.967 11.5346 23.9011C11.4249 23.8462 8.81785 22.5244 6.09013 19.5593C4.49125 17.8217 3.17802 15.873 2.18669 13.7679C0.948528 11.1385 0.213725 8.2597 0.0022385 5.21155C-0.0149734 4.96289 0.0676071 4.71771 0.231487 4.53003C0.395549 4.34235 0.62736 4.22754 0.876201 4.21124C2.59318 4.09845 3.93827 2.66052 3.93827 0.9375C3.93827 0.419678 4.35795 0 4.87577 0H19.1258C19.6434 0 20.0633 0.419678 20.0633 0.9375C20.0633 2.65942 21.4074 4.09735 23.1235 4.21124C23.3762 4.22791 23.6113 4.34619 23.7754 4.539C23.9396 4.73181 24.0187 4.98285 23.9949 5.23499C23.6743 8.61951 22.7397 11.785 21.217 14.6439C20.9735 15.1009 20.4057 15.2739 19.9488 15.0306C19.4918 14.7872 19.3188 14.2194 19.5621 13.7624C20.8376 11.3677 21.6665 8.73468 22.0311 5.92419C20.1114 5.41809 18.6367 3.83057 18.2741 1.875H5.7274C5.36338 3.83899 3.87785 5.43146 1.94627 5.93042C2.43901 10.66 4.27738 14.7953 7.41764 18.2329C9.2974 20.2905 11.1404 21.5045 11.9486 21.9849C12.833 21.447 14.9718 20.0013 17.0541 17.4948C17.385 17.0964 17.9759 17.0418 18.3743 17.3727C18.7726 17.7036 18.8273 18.2946 18.4964 18.6929C15.5331 22.2601 12.5083 23.8319 12.3809 23.8971C12.2469 23.9658 12.1004 24 11.9539 24ZM12.679 18.9265C12.9912 18.5132 12.9093 17.9255 12.4964 17.6133C11.6858 17.0008 10.9188 16.3063 10.2164 15.5493C8.17424 13.3477 6.78868 10.7609 6.09269 7.85284C6.46769 7.56317 6.82054 7.2431 7.14628 6.89667C7.68644 6.3219 8.14769 5.68011 8.51719 4.98871C8.76109 4.53204 8.5886 3.96405 8.13194 3.71997C7.67527 3.47607 7.10728 3.64856 6.86338 4.10522C6.5717 4.65088 6.20732 5.1579 5.78031 5.61237C5.40385 6.01282 4.98197 6.36823 4.52677 6.66907C4.20744 6.88 4.04832 7.26398 4.12504 7.63916C4.83879 11.1293 6.42558 14.2198 8.84184 16.8245C9.61857 17.6618 10.4678 18.4307 11.3659 19.1093C11.5351 19.2371 11.7336 19.2988 11.9305 19.2988C12.2143 19.2988 12.4948 19.1704 12.679 18.9265Z" fill="#684CFE"/>
</g>
<defs>
<clipPath id="clip0_303_2669">
<rect width="24" height="24" fill="white"/>
</clipPath>
</defs>
</svg>
