<svg width="17" height="16" viewBox="0 0 17 16" fill="none" xmlns="http://www.w3.org/2000/svg">
<path fill-rule="evenodd" clip-rule="evenodd" d="M8.50016 0.833374C8.77631 0.833374 9.00016 1.05723 9.00016 1.33337V2.00004C9.00016 2.27618 8.77631 2.50004 8.50016 2.50004C8.22402 2.50004 8.00016 2.27618 8.00016 2.00004V1.33337C8.00016 1.05723 8.22402 0.833374 8.50016 0.833374ZM13.187 2.64649C13.3823 2.84175 13.3823 3.15833 13.187 3.35359L12.8537 3.68693C12.6585 3.88219 12.3419 3.88219 12.1466 3.68693C11.9513 3.49167 11.9513 3.17508 12.1466 2.97982L12.4799 2.64649C12.6752 2.45123 12.9918 2.45123 13.187 2.64649ZM3.43261 2.93249C3.62787 2.73723 3.94445 2.73723 4.13972 2.93249L4.61105 3.40382C4.80631 3.59908 4.80631 3.91567 4.61105 4.11093C4.41579 4.30619 4.09921 4.30619 3.90394 4.11093L3.43261 3.63959C3.23735 3.44433 3.23735 3.12775 3.43261 2.93249ZM8.50016 5.16671C7.74872 5.16671 7.02805 5.46522 6.49669 5.99657C5.96534 6.52792 5.66683 7.24859 5.66683 8.00004V11.5H8.00016V8.00004C8.00016 7.7239 8.22402 7.50004 8.50016 7.50004C8.77631 7.50004 9.00016 7.7239 9.00016 8.00004V11.5H11.3335V8.00004C11.3335 7.24859 11.035 6.52792 10.5036 5.99657C9.97228 5.46522 9.25161 5.16671 8.50016 5.16671ZM12.3335 11.5695V8.00004C12.3335 6.98338 11.9296 6.00835 11.2107 5.28946C10.4918 4.57057 9.51682 4.16671 8.50016 4.16671C7.4835 4.16671 6.50848 4.57057 5.78959 5.28946C5.0707 6.00835 4.66683 6.98338 4.66683 8.00004V11.5695C4.36846 11.6541 4.09365 11.8138 3.87047 12.037C3.52665 12.3808 3.3335 12.8471 3.3335 13.3334V14.6667C3.3335 14.9428 3.55735 15.1667 3.8335 15.1667H13.1668C13.443 15.1667 13.6668 14.9428 13.6668 14.6667V13.3334C13.6668 12.8471 13.4737 12.3808 13.1299 12.037C12.9067 11.8138 12.6319 11.6541 12.3335 11.5695ZM5.16683 12.5C4.94582 12.5 4.73385 12.5878 4.57757 12.7441C4.42129 12.9004 4.3335 13.1124 4.3335 13.3334V14.1667H12.6668V13.3334C12.6668 13.1124 12.579 12.9004 12.4228 12.7441C12.2665 12.5878 12.0545 12.5 11.8335 12.5H5.16683ZM1.3335 8.00004C1.3335 7.7239 1.55735 7.50004 1.8335 7.50004H2.50016C2.77631 7.50004 3.00016 7.7239 3.00016 8.00004C3.00016 8.27618 2.77631 8.50004 2.50016 8.50004H1.8335C1.55735 8.50004 1.3335 8.27618 1.3335 8.00004ZM14.0002 8.00004C14.0002 7.7239 14.224 7.50004 14.5002 7.50004H15.1668C15.443 7.50004 15.6668 7.7239 15.6668 8.00004C15.6668 8.27618 15.443 8.50004 15.1668 8.50004H14.5002C14.224 8.50004 14.0002 8.27618 14.0002 8.00004Z" fill="#EF4444"/>
</svg>
