<svg width="25" height="24" viewBox="0 0 25 24" fill="none" xmlns="http://www.w3.org/2000/svg">
<path fill-rule="evenodd" clip-rule="evenodd" d="M12.333 1.25C12.7472 1.25 13.083 1.58579 13.083 2V3C13.083 3.41421 12.7472 3.75 12.333 3.75C11.9188 3.75 11.583 3.41421 11.583 3V2C11.583 1.58579 11.9188 1.25 12.333 1.25ZM19.3633 3.96967C19.6562 4.26256 19.6562 4.73744 19.3633 5.03033L18.8633 5.53033C18.5704 5.82322 18.0956 5.82322 17.8027 5.53033C17.5098 5.23744 17.5098 4.76256 17.8027 4.46967L18.3027 3.96967C18.5956 3.67678 19.0704 3.67678 19.3633 3.96967ZM4.73168 4.39867C5.02457 4.10578 5.49944 4.10578 5.79234 4.39867L6.49934 5.10567C6.79223 5.39856 6.79223 5.87344 6.49934 6.16633C6.20645 6.45922 5.73157 6.45922 5.43868 6.16633L4.73168 5.45933C4.43878 5.16644 4.43878 4.69156 4.73168 4.39867ZM12.333 7.75C11.2058 7.75 10.1248 8.19777 9.3278 8.9948C8.53077 9.79183 8.08301 10.8728 8.08301 12V17.25H11.583V12C11.583 11.5858 11.9188 11.25 12.333 11.25C12.7472 11.25 13.083 11.5858 13.083 12V17.25H16.583V12C16.583 10.8728 16.1352 9.79183 15.3382 8.9948C14.5412 8.19777 13.4602 7.75 12.333 7.75ZM18.083 17.3542V12C18.083 10.475 17.4772 9.01247 16.3989 7.93414C15.3205 6.8558 13.858 6.25 12.333 6.25C10.808 6.25 9.34548 6.8558 8.26714 7.93414C7.18881 9.01247 6.58301 10.475 6.58301 12V17.3542C6.13546 17.4811 5.72325 17.7207 5.38846 18.0555C4.87274 18.5712 4.58301 19.2707 4.58301 20V22C4.58301 22.4142 4.91879 22.75 5.33301 22.75H19.333C19.7472 22.75 20.083 22.4142 20.083 22V20C20.083 19.2707 19.7933 18.5712 19.2775 18.0555C18.9428 17.7207 18.5306 17.4811 18.083 17.3542ZM7.33301 18.75C7.00149 18.75 6.68354 18.8817 6.44912 19.1161C6.2147 19.3505 6.08301 19.6685 6.08301 20V21.25H18.583V20C18.583 19.6685 18.4513 19.3505 18.2169 19.1161C17.9825 18.8817 17.6645 18.75 17.333 18.75H7.33301ZM1.58301 12C1.58301 11.5858 1.91879 11.25 2.33301 11.25H3.33301C3.74722 11.25 4.08301 11.5858 4.08301 12C4.08301 12.4142 3.74722 12.75 3.33301 12.75H2.33301C1.91879 12.75 1.58301 12.4142 1.58301 12ZM20.583 12C20.583 11.5858 20.9188 11.25 21.333 11.25H22.333C22.7472 11.25 23.083 11.5858 23.083 12C23.083 12.4142 22.7472 12.75 22.333 12.75H21.333C20.9188 12.75 20.583 12.4142 20.583 12Z" fill="white"/>
</svg>
