<svg width="143" height="64" viewBox="0 0 143 64" fill="none" xmlns="http://www.w3.org/2000/svg">
<path d="M79.3404 1.62544L79.4892 1.75884C79.7981 2.03576 80.0384 2.38091 80.1903 2.76684C80.3127 3.07805 80.3757 3.40958 80.3757 3.74411V4.13858C80.3757 4.30719 80.3615 4.47544 80.3325 4.64156L80.2934 4.86946C80.2421 5.1669 80.1232 5.44854 79.9454 5.69264C79.7854 5.91307 79.5812 6.09778 79.3455 6.2351L79.3018 6.2608C79.0584 6.40274 78.7877 6.49723 78.5093 6.53848C78.2192 6.58146 77.9215 6.56734 77.637 6.49622L76.9136 6.31537L75.6954 5.89864L75.1711 5.71047C74.689 5.53739 74.1871 5.42528 73.677 5.37671L73.0984 5.32159H72.3201C71.9427 5.32159 71.5663 5.36289 71.1979 5.44478C70.7997 5.53333 70.4131 5.66872 70.0463 5.84809L69.6129 6.06009C69.266 6.22992 68.9358 6.43206 68.6269 6.66386L68.4963 6.7616C68.125 7.04025 67.7861 7.36014 67.4864 7.71514L67.4488 7.76005C67.1978 8.05719 66.9758 8.37749 66.7858 8.71664L66.6294 8.99514C66.4333 9.345 66.2717 9.71321 66.1473 10.0945L65.9969 10.5556C65.8801 10.9125 65.7967 11.2792 65.747 11.6513L65.6291 12.5346V14.0093L65.7444 14.9486C65.7957 15.3685 65.8902 15.7819 66.0264 16.1824L66.1544 16.5574C66.2743 16.9096 66.4257 17.2502 66.6075 17.575L66.73 17.7944C66.8722 18.049 67.0322 18.2931 67.2095 18.525L67.5941 19.0293C67.78 19.2727 67.9837 19.502 68.2037 19.7151L68.8992 20.3888L69.554 20.9503C69.7145 21.0876 69.8466 21.2543 69.9447 21.4414L69.9828 21.5148C70.1123 21.7628 70.1636 22.0441 70.1301 22.3218C70.1006 22.5674 70.0061 22.8007 69.8563 22.9974L69.7907 23.0833C69.647 23.2722 69.4631 23.4273 69.2528 23.5375L69.2213 23.5541C69.0094 23.6649 68.7742 23.7228 68.5354 23.7228C68.2499 23.7228 67.97 23.6399 67.7302 23.4841L67.0973 23.0726C66.9098 22.9506 66.7325 22.8131 66.5674 22.6617L65.6291 21.7993L64.3469 20.3888L63.6926 19.5303C63.4457 19.2058 63.2313 18.8575 63.053 18.4906L62.7761 17.9203L62.263 16.67L61.8144 15.2595L61.627 14.2393C61.5594 13.873 61.5259 13.5013 61.5259 13.1288V12.2781V11.2202L61.6539 10.1623L61.7398 9.58103C61.7895 9.24249 61.8673 8.90872 61.9724 8.58319L62.5196 6.89242L63.0403 5.73313C63.1632 5.45916 63.306 5.19454 63.4675 4.94144L63.9623 4.16754L64.4414 3.5406C64.6771 3.23259 64.9413 2.94754 65.2303 2.68932L65.6931 2.2761L66.384 1.77546C66.7772 1.49046 67.2024 1.25301 67.6515 1.06815L68.6106 0.673219L70.1174 0.22439L70.8545 0.0961672L71.6562 0.0320555L72.3933 0H73.0984H73.8361L74.5732 0.0641109L75.6542 0.170083C76.023 0.206254 76.3873 0.275597 76.7434 0.377301L77.1392 0.490436C77.5649 0.611953 77.9753 0.778987 78.365 0.988644L78.6612 1.14826C78.906 1.27989 79.1336 1.44007 79.3404 1.62544Z" fill="#1E81A9"/>
<path d="M63.0885 2.40973L63.1536 2.38113C63.4569 2.24722 63.7708 2.1381 64.0919 2.05488L64.4749 1.95557L63.5132 3.01345L62.9041 3.84695L62.3595 4.7125L62.0573 5.19186C61.8957 5.44897 61.753 5.71776 61.6311 5.996L61.2373 6.89244L60.8848 8.01448L60.5962 9.36092L60.4677 10.5791L60.3717 11.9896V13.304L60.4997 14.7787L60.6602 16.029L60.7542 16.3922C60.8619 16.8113 61.0143 17.218 61.2079 17.6052L61.4299 18.0486L61.9105 19.0103L62.4236 19.8759L63.1607 20.8376L63.8338 21.607L64.6354 22.3443L65.5971 23.0496L66.5588 23.7228L66.6167 23.7725C66.8732 23.9924 67.0714 24.2726 67.1923 24.588L67.2248 24.6714C67.2934 24.8496 67.3284 25.0389 67.3284 25.2298V25.2503C67.3284 25.4893 67.27 25.7247 67.1587 25.9363C67.0592 26.1254 66.92 26.2906 66.7503 26.4204L66.7396 26.4283C66.5573 26.5677 66.3459 26.6644 66.1214 26.7112L66.0792 26.7199C65.8252 26.7729 65.5626 26.7677 65.3106 26.7047L65.27 26.6945C65.1252 26.6583 64.9855 26.6053 64.8529 26.5365L64.2509 26.2233L63.0647 25.4219L62.4236 24.941L62.3413 24.8795C61.9699 24.6008 61.6311 24.2809 61.3313 23.9259L60.9168 23.4343L60.3077 22.6649L59.41 21.4146L58.8009 20.517L58.3747 19.7069C58.2314 19.4352 58.109 19.1532 58.0084 18.8633L57.6467 17.8242L57.4379 17.0301C57.3637 16.7477 57.3094 16.4604 57.2759 16.1703L57.1341 14.939L57.0376 13.6246V12.0858L57.1341 10.7073L57.3902 9.04032L57.5482 8.4372C57.6777 7.94357 57.8677 7.46797 58.1146 7.02137L58.4163 6.47571L58.8619 5.85553C59.0559 5.58552 59.2718 5.33172 59.507 5.09656L60.0628 4.54054C60.2686 4.3349 60.4885 4.14409 60.7212 3.96953L61.5259 3.36612L62.0126 3.02082C62.3499 2.78144 62.7101 2.57671 63.0885 2.40973Z" fill="#1E81A9"/>
<path d="M55.5487 11.2464L56.3971 10.1471L56.2696 11.4011L56.1786 12.8146L56.2132 14.1284L56.3828 15.6954L56.6475 17.2277L56.9335 18.3426L57.2805 19.3597L57.6275 20.3447L58.134 21.3255L58.706 22.3367L59.404 23.2804L60.6278 24.6913L61.876 25.813L63.0815 26.7927C63.1948 26.8846 63.2949 26.9917 63.3792 27.1109L63.4061 27.1494C63.6474 27.4917 63.7323 27.9249 63.6413 28.3338C63.6225 28.4178 63.5961 28.5009 63.5626 28.5802C63.4031 28.9579 63.0825 29.2498 62.6929 29.3779C62.4744 29.4498 62.2387 29.4692 62.0116 29.4328L61.8491 29.4067C61.5062 29.3517 61.182 29.2132 60.9052 29.0035L60.1808 28.4544C59.9633 28.2898 59.7581 28.11 59.5666 27.9163L58.833 27.1757L57.8744 26.0785L56.9467 24.9485L56.1766 23.718L55.535 22.4842L55.0199 21.183L54.5245 19.4322L54.2319 18.0609L54.0628 16.494L54.0424 15.7272C54.0328 15.3632 54.0556 14.9977 54.1105 14.6377C54.1826 14.1649 54.3102 13.7004 54.4895 13.2571L54.7161 12.6974C54.9259 12.178 55.2063 11.6898 55.5487 11.2464Z" fill="#1E81A9"/>
<path d="M56.3875 29.2517L56.7055 29.3783C57.1215 29.5437 57.596 29.4459 57.9125 29.1293C58.3113 28.7308 58.3519 28.0982 58.0075 27.6519L57.0824 26.4522L56.0898 25.2917L55.4893 24.4096L55.1545 23.8733L54.8182 23.2728L54.4809 22.6403L54.2091 22.0702L53.9343 21.3719L53.7229 20.6399L53.5024 19.5874L53.3973 20.0608C53.2769 20.6029 53.2307 21.1588 53.2591 21.7134L53.281 22.1267L53.3333 22.8949L53.4501 23.6936L53.5649 24.3961L53.7427 25.0648L53.9505 25.6366L53.9627 25.6774C54.0714 26.0312 54.2111 26.3746 54.3813 26.7032L54.6663 27.2533L55.0996 27.9781C55.2129 28.168 55.3445 28.3465 55.4923 28.5111L55.7728 28.8233C55.9419 29.0116 56.1522 29.1582 56.3875 29.2517Z" fill="#1E81A9"/>
<path d="M64.798 36.5214L64.6471 36.3904C64.3337 36.1185 64.0883 35.7772 63.9298 35.3938C63.8023 35.0846 63.7342 34.7541 63.7286 34.4196L63.7225 34.0252C63.72 33.8566 63.7317 33.6881 63.7576 33.5216L63.7931 33.2931C63.8399 32.9948 63.9542 32.7113 64.1279 32.4644C64.2844 32.2415 64.4861 32.0535 64.7192 31.9124L64.7629 31.886C65.0037 31.7402 65.2725 31.6415 65.5503 31.5957C65.8399 31.5481 66.1376 31.5575 66.4231 31.624L67.1496 31.7932L68.3744 32.1905L68.9012 32.3702C69.3863 32.5356 69.8898 32.6396 70.4003 32.6801L70.98 32.7259L71.7583 32.7135C72.1357 32.7074 72.5111 32.6601 72.8784 32.5723C73.2752 32.4774 73.6598 32.3359 74.0235 32.1506L74.4533 31.9317C74.7972 31.7564 75.1244 31.549 75.4297 31.3123L75.5582 31.2125C75.9255 30.9279 76.2588 30.6026 76.5529 30.2429L76.59 30.1974C76.8359 29.8963 77.0528 29.5725 77.2377 29.2303L77.3891 28.9493C77.5801 28.5964 77.7355 28.2257 77.8539 27.8424L77.9972 27.3789C78.1079 27.0203 78.1856 26.6523 78.2293 26.2794L78.333 25.3943L78.3091 23.9199L78.179 22.9825C78.1211 22.5635 78.02 22.1516 77.8773 21.7534L77.7437 21.3805C77.6182 21.0302 77.4612 20.692 77.2743 20.3702L77.1483 20.1528C77.002 19.9005 76.8379 19.659 76.657 19.43L76.2643 18.9319C76.0748 18.6915 75.8671 18.4655 75.6441 18.256L74.9379 17.5935L74.2739 17.0425C74.1114 16.9078 73.9762 16.7433 73.8757 16.5578L73.836 16.485C73.7029 16.2391 73.6471 15.9586 73.676 15.6803C73.7014 15.4343 73.7923 15.1996 73.9392 15.0005L74.0032 14.9135C74.1439 14.7223 74.3253 14.5644 74.5335 14.4508L74.565 14.4337C74.7748 14.3195 75.009 14.2579 75.2478 14.2541C75.5338 14.2495 75.8147 14.3279 76.0566 14.4799L76.6961 14.8811C76.8861 15.0002 77.0655 15.1347 77.2326 15.2836L78.1846 16.1308L79.4892 17.5207L80.1572 18.3686C80.4097 18.689 80.6292 19.0339 80.8136 19.3979L81.0996 19.9637L81.6325 21.2055L82.104 22.6087L82.3072 23.6258C82.3803 23.991 82.4204 24.3621 82.426 24.7345L82.4397 25.5851L82.457 26.6429L82.3453 27.7027L82.2696 28.2853C82.2249 28.6246 82.1522 28.9595 82.0521 29.2868L81.5324 30.9861L81.0305 32.1535C80.9116 32.4294 80.773 32.6963 80.6155 32.952L80.1334 33.7337L79.664 34.3682C79.4338 34.6799 79.1742 34.9691 78.8892 35.232L78.433 35.6526L77.7503 36.1642C77.3622 36.4554 76.9405 36.6996 76.4945 36.8917L75.5414 37.3019L74.0423 37.7747L73.3072 37.9148L72.5066 37.9917L71.7699 38.0356L71.0648 38.0468L70.3277 38.0586L69.5896 38.0063L68.507 37.9176C68.1377 37.8874 67.7724 37.8239 67.4148 37.7279L67.017 37.6211C66.5897 37.5064 66.1762 37.3459 65.7835 37.1425L65.4843 36.9877C65.2379 36.86 65.0073 36.7034 64.798 36.5214Z" fill="#545454"/>
<path d="M81.0352 35.4773L80.9707 35.5069C80.6694 35.6456 80.3575 35.7598 80.0375 35.8481L79.656 35.9536L80.6009 34.8804L81.1968 34.0373L81.7276 33.1631L82.0218 32.6791C82.1793 32.4194 82.318 32.1483 82.4353 31.8682L82.8148 30.9655L83.1491 29.838L83.4163 28.4871L83.525 27.267L83.5986 25.8551L83.5773 24.5409L83.4259 23.0685L83.2456 21.821L83.146 21.4593C83.0312 21.0419 82.8722 20.6378 82.6725 20.2537L82.4439 19.8139L81.9476 18.86L81.4208 18.0028L80.6684 17.0529L79.9831 16.2944L79.1698 15.57L78.1969 14.8802L77.2246 14.2224L77.1657 14.1737C76.9056 13.958 76.7034 13.6809 76.5769 13.3675L76.5439 13.2846C76.4722 13.1075 76.4341 12.9188 76.4311 12.7279L76.4306 12.7075C76.427 12.4685 76.4814 12.2321 76.5891 12.0188C76.6856 11.8282 76.8228 11.6608 76.9904 11.5283L77.0006 11.5202C77.1804 11.3779 77.3902 11.2778 77.6143 11.2274L77.6559 11.218C77.9094 11.161 78.1721 11.1621 78.4245 11.2209L78.4657 11.2305C78.611 11.2644 78.7517 11.3151 78.8853 11.3818L79.4924 11.6853L80.6913 12.4677L81.34 12.9383L81.4228 12.9984C81.7988 13.2711 82.1427 13.5856 82.448 13.9357L82.8707 14.4207L83.492 15.1802L84.4094 16.416L85.0328 17.3037L85.4722 18.107C85.6195 18.3763 85.7465 18.6563 85.8517 18.9445L86.2296 19.9778L86.4516 20.7684C86.5304 21.0496 86.5888 21.336 86.6269 21.6255L86.789 22.8544L86.9058 24.167L86.9307 25.7057L86.8565 27.0855L86.6269 28.7564L86.4786 29.362C86.3572 29.8576 86.1743 30.3362 85.935 30.7867L85.6419 31.3371L85.2065 31.9643C85.0165 32.2374 84.8052 32.4946 84.5735 32.7335L84.0264 33.2983C83.8242 33.5073 83.6073 33.7016 83.3772 33.8798L82.5826 34.4961L82.1015 34.8491C81.7683 35.0938 81.4106 35.3043 81.0352 35.4773Z" fill="#545454"/>
<path d="M88.6147 26.8227L87.7902 27.94L87.8903 26.6835L87.9512 25.2684L87.8882 23.9555L87.685 22.3926L87.3873 20.8664L87.0775 19.7579L86.7081 18.7485L86.3403 17.7712L85.8125 16.8015L85.2191 15.8029L84.5008 14.8745L83.247 13.4902L81.975 12.3957L80.7486 11.4422C80.6333 11.3527 80.5312 11.2478 80.4443 11.1304L80.4164 11.0924C80.168 10.7554 80.074 10.3242 80.1558 9.91345C80.1725 9.82907 80.1974 9.7454 80.2289 9.66539C80.3808 9.28443 80.6953 8.98561 81.0819 8.84916C81.2988 8.7726 81.5335 8.74812 81.7611 8.77961L81.9247 8.80222C82.2686 8.84982 82.5958 8.9813 82.8767 9.18506L83.6133 9.71842C83.8338 9.87829 84.0431 10.0536 84.2387 10.2431L84.988 10.9677L85.97 12.044L86.922 13.1539L87.7181 14.3675L88.3861 15.5871L88.9297 16.877L89.4621 18.6167L89.7841 19.9814L89.9873 21.5443L90.0239 22.3105C90.0412 22.6742 90.0265 23.0401 89.9792 23.4012C89.9172 23.8754 89.7999 24.3425 89.6302 24.7896L89.4158 25.3541C89.2172 25.8778 88.9474 26.3719 88.6147 26.8227Z" fill="#545454"/>
<path d="M87.3884 8.8396L87.0679 8.71991C86.6483 8.56345 86.1758 8.6715 85.8659 8.9948C85.4763 9.40187 85.4493 10.0352 85.8029 10.474L86.7539 11.6534L87.7715 12.7922L88.3907 13.6613L88.7367 14.1903L89.0862 14.7834L89.4367 15.4085L89.7207 15.9726L90.0108 16.6648L90.2379 17.3921L90.4807 18.4396L90.5757 17.964C90.6844 17.4195 90.719 16.8627 90.6783 16.3088L90.6478 15.8961L90.5793 15.1292L90.4446 14.3332L90.3151 13.6334L90.1226 12.9686L89.9031 12.4014L89.8894 12.3609C89.7736 12.0095 89.6262 11.6692 89.4489 11.3443L89.1523 10.8005L88.7037 10.0852C88.5858 9.89774 88.4507 9.72217 88.2993 9.56078L88.0123 9.25465C87.839 9.07009 87.6257 8.92805 87.3884 8.8396Z" fill="#545454"/>
<path d="M7.2033 56.1791V48.9521H9.57816V56.1791H7.2033ZM1 56.1791V48.9521H3.37486V56.1791H1ZM9.57816 48.9933H7.2033C7.2033 48.3379 7.03271 47.833 6.69147 47.4784C6.35024 47.1095 5.87936 46.9256 5.27884 46.9256V45.0008C6.12504 45.0008 6.86892 45.1715 7.51039 45.5129C8.15186 45.8543 8.65688 46.3252 9.02539 46.9256C9.3939 47.5261 9.57816 48.2155 9.57816 48.9933ZM1 48.9933C1 48.2155 1.18426 47.5261 1.55277 46.9256C1.92128 46.3252 2.4263 45.8543 3.06777 45.5129C3.7229 45.1715 4.46673 45.0008 5.29932 45.0008V46.9256C4.69879 46.9256 4.22792 47.1095 3.88668 47.4784C3.54545 47.833 3.37486 48.3379 3.37486 48.9933H1ZM9.57816 56.1588C9.57816 56.9366 9.3939 57.6259 9.02539 58.2264C8.65688 58.8269 8.15186 59.2978 7.51039 59.6392C6.86892 59.9806 6.12504 60.1513 5.27884 60.1513V58.2061C5.87936 58.2061 6.35024 58.0288 6.69147 57.6737C7.03271 57.3054 7.2033 56.8004 7.2033 56.1588H9.57816ZM1 56.1588H3.37486C3.37486 56.8004 3.54545 57.3054 3.88668 57.6737C4.22792 58.0288 4.69879 58.2061 5.29932 58.2061V60.1513C4.46673 60.1513 3.7229 59.9806 3.06777 59.6392C2.4263 59.2978 1.92128 58.8269 1.55277 58.2264C1.18426 57.6259 1 56.9366 1 56.1588ZM18.5719 56.4865C18.5719 56.0084 18.4286 55.5924 18.1419 55.2372C17.8553 54.8689 17.4799 54.521 17.0159 54.1933C16.5655 53.8656 16.081 53.5385 15.5623 53.2108C15.0437 52.8694 14.5523 52.494 14.0883 52.0845C13.6379 51.6613 13.2625 51.1701 12.9623 50.6108C12.6757 50.0509 12.5324 49.3961 12.5324 48.6453H14.9072C14.9072 49.1091 15.0505 49.5257 15.3371 49.894C15.6374 50.2628 16.0128 50.6108 16.4632 50.9379C16.9272 51.2656 17.4185 51.6004 17.9372 51.9413C18.4558 52.2689 18.9404 52.6444 19.3908 53.0675C19.8548 53.477 20.2302 53.9611 20.5168 54.521C20.8034 55.0671 20.9467 55.7219 20.9467 56.4865H18.5719ZM12.5324 48.6656C12.5324 47.9285 12.7166 47.2874 13.0851 46.7412C13.4536 46.1814 13.9586 45.7516 14.6001 45.4514C15.2553 45.1374 15.9991 44.9805 16.8317 44.9805V46.9256C16.2311 46.9256 15.7602 47.0826 15.419 47.3966C15.0778 47.6968 14.9072 48.12 14.9072 48.6656H12.5324ZM20.9467 56.4656C20.9467 57.2165 20.7625 57.8647 20.394 58.4108C20.0254 58.9569 19.5204 59.3867 18.879 59.7007C18.2374 60.0009 17.4936 60.1513 16.6474 60.1513V58.2264C17.2479 58.2264 17.7188 58.0694 18.06 57.7555C18.4012 57.4415 18.5719 57.0117 18.5719 56.4656H20.9467ZM18.5719 48.6453C18.5036 48.0717 18.3057 47.6419 17.9782 47.3554C17.6642 47.0689 17.2821 46.9256 16.8317 46.9256V44.9805C17.5277 44.9805 18.1487 45.1171 18.6947 45.3899C19.2406 45.6632 19.6842 46.0453 20.0254 46.5365C20.3803 47.014 20.6055 47.5805 20.7011 48.2358L18.5719 48.6453ZM14.3954 55.5858C14.4636 56.4047 14.6956 57.0529 15.0915 57.5304C15.4873 57.9947 16.0059 58.2264 16.6474 58.2264V60.1513C15.4054 60.1513 14.3954 59.7824 13.6174 59.0453C12.8531 58.3082 12.3959 57.2845 12.2457 55.9744L14.3954 55.5858ZM29.8339 56.1791V48.9521H32.2087V56.1791H29.8339ZM23.6306 56.1791V48.9521H26.0054V56.1791H23.6306ZM32.2087 48.9933H29.8339C29.8339 48.3379 29.6633 47.833 29.322 47.4784C28.9809 47.1095 28.51 46.9256 27.9094 46.9256V45.0008C28.7557 45.0008 29.4995 45.1715 30.141 45.5129C30.7825 45.8543 31.2874 46.3252 31.6559 46.9256C32.0245 47.5261 32.2087 48.2155 32.2087 48.9933ZM23.6306 48.9933C23.6306 48.2155 23.8148 47.5261 24.1833 46.9256C24.5518 46.3252 25.0569 45.8543 25.6983 45.5129C26.3535 45.1715 27.0973 45.0008 27.9299 45.0008V46.9256C27.3294 46.9256 26.8585 47.1095 26.5172 47.4784C26.1761 47.833 26.0054 48.3379 26.0054 48.9933H23.6306ZM32.2087 56.1588C32.2087 56.9366 32.0245 57.6259 31.6559 58.2264C31.2874 58.8269 30.7825 59.2978 30.141 59.6392C29.4995 59.9806 28.7557 60.1513 27.9094 60.1513V58.2061C28.51 58.2061 28.9809 58.0288 29.322 57.6737C29.6633 57.3054 29.8339 56.8004 29.8339 56.1588H32.2087ZM23.6306 56.1588H26.0054C26.0054 56.8004 26.1761 57.3054 26.5172 57.6737C26.8585 58.0288 27.3294 58.2061 27.9299 58.2061V60.1513C27.0973 60.1513 26.3535 59.9806 25.6983 59.6392C25.0569 59.2978 24.5518 58.8269 24.1833 58.2264C23.8148 57.6259 23.6306 56.9366 23.6306 56.1588ZM41.6119 59.8439L35.8181 45.3081H37.9882L43.7617 59.8439H41.6119ZM35.3881 59.8439V45.3081H37.763V59.8439H35.3881ZM42.2056 59.8439V45.3081H44.5807V59.8439H42.2056Z" fill="#1E81A9"/>
<path d="M52.7561 57.0798C52.7561 56.7796 52.6331 56.5271 52.3873 56.3224C52.1419 56.1177 51.8208 55.9267 51.4251 55.7494C51.0293 55.5721 50.6133 55.3943 50.1764 55.217C49.7395 55.0259 49.3234 54.8009 48.9277 54.5413C48.5452 54.2822 48.2246 53.9612 47.9655 53.5791C47.7196 53.1971 47.5967 52.7262 47.5967 52.1663C47.5967 52.1663 47.6719 52.1663 47.8222 52.1663C47.9858 52.1663 48.1768 52.1663 48.3953 52.1663C48.6274 52.1663 48.8525 52.1663 49.0709 52.1663C49.3031 52.1663 49.4941 52.1663 49.644 52.1663C49.7944 52.1663 49.8695 52.1663 49.8695 52.1663C49.8695 52.4671 49.992 52.7196 50.2379 52.9243C50.4969 53.129 50.818 53.32 51.2 53.4973C51.5958 53.6609 52.0123 53.8387 52.4487 54.0297C52.8856 54.207 53.3022 54.4255 53.6979 54.6846C54.0937 54.9442 54.4142 55.2647 54.6601 55.6467C54.9055 56.0293 55.0284 56.5068 55.0284 57.0798C55.0284 57.0798 54.9532 57.0798 54.8034 57.0798C54.653 57.0798 54.462 57.0798 54.2298 57.0798C54.0119 57.0798 53.7863 57.0798 53.5547 57.0798C53.3362 57.0798 53.1452 57.0798 52.9811 57.0798C52.8313 57.0798 52.7561 57.0798 52.7561 57.0798ZM51.2203 60.1513V58.2264C51.671 58.2264 52.0393 58.1172 52.3263 57.8988C52.6128 57.6808 52.7561 57.4075 52.7561 57.0798H55.0284C55.0284 57.694 54.8714 58.2335 54.5575 58.6974C54.2435 59.1617 53.8 59.5234 53.227 59.7825C52.6535 60.0284 51.9849 60.1513 51.2203 60.1513ZM47.5967 52.1663C47.5967 51.5659 47.7537 51.034 48.0676 50.5697C48.3816 50.1058 48.8047 49.7441 49.3371 49.4845C49.8828 49.2117 50.4969 49.0751 51.1797 49.0751V50.9994C50.8109 50.9994 50.4969 51.1087 50.2379 51.3271C49.992 51.5455 49.8695 51.8255 49.8695 52.1663H47.5967ZM49.5007 56.4865C49.5688 57.0595 49.7603 57.4964 50.0743 57.7966C50.4014 58.0832 50.784 58.2264 51.2203 58.2264V60.1513C50.5518 60.1513 49.9376 60.0212 49.3778 59.7622C48.8322 59.4888 48.3816 59.1068 48.027 58.6156C47.6856 58.1243 47.4605 57.5508 47.3513 56.8959L49.5007 56.4865ZM52.8993 52.7399C52.8313 52.1531 52.6331 51.7162 52.3055 51.4297C51.9915 51.1427 51.6095 50.9994 51.1589 50.9994V49.0751C51.8554 49.0751 52.4762 49.2117 53.0223 49.4845C53.5679 49.7441 54.0119 50.119 54.3528 50.6108C54.7079 51.0883 54.9329 51.6614 55.0284 52.3304L52.8993 52.7399ZM65.6418 49.4027V59.8439H63.2669V49.4027H65.6418ZM59.7865 49.4027V56.3224H57.4115V49.4027H59.7865ZM59.7865 56.3224C59.7865 56.8822 59.9434 57.3328 60.2574 57.6737C60.5713 58.0151 60.9742 58.1858 61.4655 58.1858L60.8101 60.1513C60.1685 60.1513 59.5888 59.9872 59.0702 59.6595C58.5652 59.3187 58.1623 58.8614 57.8621 58.2879C57.5619 57.7011 57.4115 57.0458 57.4115 56.3224H59.7865ZM64.1269 56.2203C64.1269 56.9711 63.9837 57.6463 63.6966 58.2473C63.4101 58.834 63.0144 59.2978 62.5094 59.6392C62.0044 59.9806 61.438 60.1513 60.8101 60.1513L61.4655 58.1858C61.9978 58.1858 62.4276 58.008 62.7553 57.6534C63.0962 57.2846 63.2669 56.807 63.2669 56.2203H64.1269ZM74.3624 60.1716V49.4027H76.7373V60.1716H74.3624ZM68.507 55.9744V52.9035H70.882V55.9744H68.507ZM70.882 52.9243H68.507C68.507 52.1872 68.6574 51.5318 68.9576 50.9588C69.2579 50.372 69.6602 49.9143 70.1652 49.5872C70.6839 49.2458 71.264 49.0751 71.9056 49.0751L72.5605 51.0406C72.0692 51.0406 71.6669 51.2113 71.3529 51.5522C71.039 51.8935 70.882 52.3508 70.882 52.9243ZM75.2219 53.0264H74.3624C74.3624 52.4259 74.1917 51.9484 73.8503 51.5933C73.5231 51.225 73.0929 51.0406 72.5605 51.0406L71.9056 49.0751C72.5335 49.0751 73.1 49.2458 73.6049 49.5872C74.1099 49.928 74.5056 50.399 74.7922 50.9994C75.0787 51.6004 75.2219 52.2756 75.2219 53.0264ZM70.882 55.9744C70.882 56.5342 71.039 56.9843 71.3529 57.3257C71.6669 57.6671 72.0692 57.8378 72.5605 57.8378L71.9056 59.8028C71.264 59.8028 70.6839 59.6392 70.1652 59.3115C69.6602 58.9707 69.2579 58.5129 68.9576 57.9399C68.6574 57.3532 68.507 56.6978 68.507 55.9744H70.882ZM75.2219 55.8723C75.2219 56.6226 75.0787 57.2983 74.7922 57.8988C74.5056 58.486 74.1099 58.9498 73.6049 59.2912C73.1 59.6326 72.5335 59.8028 71.9056 59.8028L72.5605 57.8378C73.0929 57.8378 73.5231 57.66 73.8503 57.3054C74.1917 56.9366 74.3624 56.459 74.3624 55.8723H75.2219ZM76.7373 60.0487C76.7373 60.7995 76.5529 61.4681 76.1846 62.0548C75.8295 62.6558 75.3449 63.1262 74.7307 63.4676C74.1165 63.8227 73.4139 64 72.6219 64V62.0548C73.1406 62.0548 73.5572 61.8709 73.8711 61.5021C74.1983 61.1338 74.3624 60.6491 74.3624 60.0487H76.7373ZM70.9023 60.3352C70.9704 60.895 71.1619 61.3182 71.4758 61.6047C71.803 61.905 72.1921 62.0548 72.6428 62.0548V64C71.96 64 71.3392 63.8633 70.7794 63.5905C70.2338 63.3177 69.7831 62.9352 69.4286 62.444C69.0872 61.9527 68.8687 61.3863 68.7732 60.7446L70.9023 60.3352ZM87.8323 49.4027V59.8439H85.4579V49.4027H87.8323ZM81.9775 49.4027V56.3224H79.6025V49.4027H81.9775ZM81.9775 56.3224C81.9775 56.8822 82.1345 57.3328 82.4479 57.6737C82.7619 58.0151 83.1647 58.1858 83.656 58.1858L83.0011 60.1513C82.3595 60.1513 81.7794 59.9872 81.2607 59.6595C80.7557 59.3187 80.3529 58.8614 80.0526 58.2879C79.7524 57.7011 79.6025 57.0458 79.6025 56.3224H81.9775ZM86.3174 56.2203C86.3174 56.9711 86.1742 57.6463 85.8877 58.2473C85.6012 58.834 85.2054 59.2978 84.6999 59.6392C84.195 59.9806 83.6285 60.1513 83.0011 60.1513L83.656 58.1858C84.1884 58.1858 84.6181 58.008 84.9458 57.6534C85.2872 57.2846 85.4579 56.807 85.4579 56.2203H86.3174ZM91.105 59.8439V49.4027H93.4799V59.8439H91.105ZM92.6199 53.2723C92.6199 52.4803 92.7428 51.7777 92.9882 51.1635C93.2478 50.5356 93.6024 50.0444 94.053 49.6893C94.5036 49.321 95.0085 49.1365 95.5679 49.1365L95.0151 51.3068C94.5513 51.3068 94.1759 51.4912 93.8894 51.8595C93.6161 52.2146 93.4799 52.685 93.4799 53.2723H92.6199ZM96.4071 51.9413C96.2024 51.7503 95.9773 51.6004 95.732 51.4912C95.4861 51.3682 95.2473 51.3068 95.0151 51.3068L95.5679 49.1365C95.8955 49.1365 96.1958 49.198 96.4686 49.321C96.7419 49.4439 97.0213 49.6415 97.3083 49.9143L96.4071 51.9413ZM100.537 56.4453V45.2878L102.912 45.3082V56.4453H100.537ZM99.349 51.2453V49.4027H105.491V51.2453H99.349ZM100.537 56.425H102.912C102.912 56.7933 102.966 57.1144 103.075 57.3872C103.185 57.66 103.334 57.8718 103.526 58.0217C103.731 58.1584 103.969 58.2264 104.242 58.2264L103.976 60.1513C102.898 60.1513 102.052 59.8236 101.437 59.1683C100.837 58.5129 100.537 57.5985 100.537 56.425ZM105.164 57.8784L106.064 59.4548C105.737 59.7007 105.395 59.878 105.041 59.9872C104.699 60.0964 104.345 60.1513 103.976 60.1513L104.242 58.2264C104.419 58.2264 104.584 58.1924 104.733 58.1243C104.884 58.0557 105.027 57.9739 105.164 57.8784ZM113.545 59.8439V52.9035H115.92V59.8439H113.545ZM111.088 60.1513L111.396 58.3082C111.832 58.3082 112.207 58.1995 112.521 57.9811C112.849 57.7489 113.101 57.4212 113.279 56.9981C113.457 56.5749 113.545 56.077 113.545 55.5035L114.61 55.4014C114.61 56.3158 114.453 57.1347 114.139 57.8581C113.825 58.5678 113.402 59.1271 112.869 59.5366C112.351 59.9466 111.757 60.1513 111.088 60.1513ZM111.088 60.1513C110.447 60.1513 109.867 60.0075 109.348 59.721C108.843 59.4345 108.44 59.0453 108.14 58.5541C107.854 58.0491 107.71 57.4827 107.71 56.8548L109.881 56.7527C109.881 57.2028 110.03 57.5782 110.331 57.8784C110.645 58.165 111 58.3082 111.396 58.3082L111.088 60.1513ZM107.71 56.8548C107.71 56.2269 107.874 55.6676 108.202 55.1763C108.543 54.6846 109 54.2959 109.573 54.0089C110.146 53.7087 110.788 53.5588 111.498 53.5588L111.702 55.1966C111.17 55.1966 110.734 55.3399 110.392 55.6264C110.051 55.9129 109.881 56.2884 109.881 56.7527L107.71 56.8548ZM111.702 55.1966L111.498 53.5588H114.405V55.1966H111.702ZM113.545 55.5035V53.0061H114.61V55.4014L113.545 55.5035ZM115.92 53.0264H113.545C113.545 52.4259 113.381 51.9413 113.054 51.573C112.74 51.2042 112.33 51.0203 111.825 51.0203V49.0751C112.603 49.0751 113.3 49.2458 113.914 49.5872C114.542 49.928 115.033 50.399 115.387 50.9994C115.743 51.6004 115.92 52.2756 115.92 53.0264ZM110.106 52.7399L107.956 52.3304C108.065 51.6751 108.291 51.1087 108.631 50.6311C108.987 50.1399 109.437 49.7578 109.983 49.4845C110.543 49.2117 111.157 49.0751 111.825 49.0751V51.0203C111.388 51.0203 111.006 51.1635 110.679 51.45C110.365 51.7366 110.174 52.1663 110.106 52.7399ZM120.101 60.0075C119.691 60.0075 119.35 59.878 119.077 59.6189C118.818 59.3456 118.688 59.0047 118.688 58.5952C118.688 58.1858 118.818 57.8444 119.077 57.5716C119.35 57.2846 119.691 57.1413 120.101 57.1413C120.51 57.1413 120.851 57.2846 121.124 57.5716C121.411 57.8444 121.554 58.1858 121.554 58.5952C121.554 59.0047 121.411 59.3456 121.124 59.6189C120.851 59.878 120.51 60.0075 120.101 60.0075ZM132.553 49.4027V59.8439H130.178V49.4027H132.553ZM126.698 49.4027V56.3224H124.323V49.4027H126.698ZM126.698 56.3224C126.698 56.8822 126.855 57.3328 127.169 57.6737C127.483 58.0151 127.885 58.1858 128.376 58.1858L127.722 60.1513C127.08 60.1513 126.5 59.9872 125.981 59.6595C125.476 59.3187 125.074 58.8614 124.774 58.2879C124.473 57.7011 124.323 57.0458 124.323 56.3224H126.698ZM131.038 56.2203C131.038 56.9711 130.895 57.6463 130.608 58.2473C130.322 58.834 129.926 59.2978 129.421 59.6392C128.916 59.9806 128.349 60.1513 127.722 60.1513L128.376 58.1858C128.909 58.1858 129.339 58.008 129.666 57.6534C130.008 57.2846 130.178 56.807 130.178 56.2203H131.038ZM135.623 57.8378L140.025 51.4089H142.584L138.203 57.8378H135.623ZM135.623 59.8439V57.8378H142.584V59.8439H135.623ZM135.623 51.4089V49.4027H142.584V51.4089H135.623Z" fill="#545454"/>
</svg>
