<svg width="20" height="20" viewBox="0 0 20 20" fill="none" xmlns="http://www.w3.org/2000/svg">
<path d="M16.3607 6.66412C16.3715 6.80995 16.3715 6.95495 16.3715 7.09995C16.3715 11.5375 12.994 16.6508 6.8215 16.6508C4.91984 16.6508 3.15317 16.1 1.6665 15.1433C1.9365 15.1741 2.1965 15.185 2.47734 15.185C4.0465 15.185 5.49067 14.655 6.64484 13.7508C5.169 13.72 3.93234 12.7533 3.50567 11.4233C3.71317 11.4541 3.9215 11.475 4.13984 11.475C4.44067 11.475 4.74317 11.4333 5.024 11.3608C3.48484 11.0491 2.33234 9.69829 2.33234 8.06662V8.02495C2.77984 8.27412 3.299 8.42995 3.849 8.45079C2.94484 7.84912 2.35234 6.81995 2.35234 5.65579C2.35234 5.03245 2.51817 4.46079 2.809 3.96245C4.4615 5.99829 6.94567 7.32912 9.73067 7.47495C9.679 7.22495 9.64734 6.96579 9.64734 6.70579C9.64734 4.85579 11.144 3.34912 13.004 3.34912C13.9707 3.34912 14.8432 3.75412 15.4565 4.40912C16.2148 4.26329 16.9415 3.98245 17.5865 3.59829C17.3373 4.37745 16.8065 5.03245 16.1107 5.44829C16.7865 5.37495 17.4415 5.18829 18.0432 4.92829C17.5865 5.59329 17.0157 6.18579 16.3607 6.66412Z" fill="#33354D"/>
</svg>
