<svg width="25" height="24" viewBox="0 0 25 24" fill="none" xmlns="http://www.w3.org/2000/svg">
<g clip-path="url(#clip0_303_2676)">
<g clip-path="url(#clip1_303_2676)">
<path d="M22.4584 18.8423V2.34357C22.4584 2.08521 22.248 1.87482 21.9897 1.87482H19.9274C19.6688 1.87482 19.4586 2.08521 19.4586 2.34357V22.1234H23.3958C23.9136 22.1234 24.3333 22.543 24.3333 23.0607C24.3333 23.5785 23.9136 23.9982 23.3958 23.9982H1.27258C0.754761 23.9982 0.335083 23.5785 0.335083 23.0607V16.3581C0.335083 15.0659 1.38647 14.0145 2.67865 14.0145H4.74097C6.03333 14.0145 7.08453 15.0659 7.08453 16.3581V18.8423C7.08453 19.3601 6.66486 19.7798 6.14722 19.7798C5.62939 19.7798 5.20972 19.3601 5.20972 18.8423V16.3581C5.20972 16.0997 4.99951 15.8893 4.74097 15.8893H2.67865C2.42029 15.8893 2.2099 16.0997 2.2099 16.3581V22.1234H8.95953V9.84302C8.95953 8.55066 10.0107 7.49945 11.3031 7.49945H13.3654C14.6576 7.49945 15.709 8.55066 15.709 9.84302V18.8423C15.709 19.3601 15.2893 19.7798 14.7715 19.7798C14.2538 19.7798 13.834 19.3601 13.834 18.8423V9.84302C13.834 9.58447 13.6238 9.37427 13.3654 9.37427H11.3031C11.0446 9.37427 10.8344 9.58447 10.8344 9.84302V22.1234H17.5838V2.34357C17.5838 1.05139 18.6352 0 19.9274 0H21.9897C23.2819 0 24.3333 1.05139 24.3333 2.34357V18.8423C24.3333 19.3601 23.9136 19.7798 23.3958 19.7798C22.8781 19.7798 22.4584 19.3601 22.4584 18.8423ZM4.06769 8.38989H2.67169C2.44135 8.38989 2.20807 8.24506 2.20807 7.9682C2.20807 7.45038 1.78839 7.0307 1.27075 7.0307C0.75293 7.0307 0.333252 7.45038 0.333252 7.9682C0.333252 9.22705 1.31506 10.2189 2.58398 10.2627V10.7803C2.58398 11.2982 3.00366 11.7178 3.52148 11.7178C4.03912 11.7178 4.4588 11.2982 4.4588 10.7803V10.2374C5.74841 10.0573 6.70972 8.9967 6.70972 7.67505V7.59302C6.70972 6.11993 5.52448 4.92151 4.06769 4.92151H3.20874C2.78156 4.92151 2.44684 4.5954 2.44684 4.17883V4.1109C2.44684 3.69122 2.77441 3.37482 3.20874 3.37482H4.021C4.25977 3.37482 4.50659 3.53448 4.50659 3.802C4.50659 4.31982 4.92645 4.7395 5.44409 4.7395C5.96191 4.7395 6.38159 4.31982 6.38159 3.802C6.38159 2.67847 5.55194 1.74115 4.4588 1.54028V0.9375C4.4588 0.419678 4.03912 0 3.52148 0C3.00366 0 2.58398 0.419678 2.58398 0.9375V1.57251C2.12 1.68201 1.69501 1.91327 1.3504 2.25055C0.848328 2.74182 0.572021 3.40247 0.572021 4.1109V4.17883C0.572021 4.8869 0.847778 5.5481 1.34857 6.04083C1.84387 6.52808 2.50452 6.79633 3.20874 6.79633H4.06769C4.48352 6.79633 4.83472 7.16125 4.83472 7.59302V7.67505C4.83472 8.08264 4.50494 8.38989 4.06769 8.38989Z" fill="#FE603E"/>
</g>
</g>
<defs>
<clipPath id="clip0_303_2676">
<rect width="24" height="24" fill="white" transform="translate(0.333252)"/>
</clipPath>
<clipPath id="clip1_303_2676">
<rect width="24" height="24" fill="white" transform="translate(0.333252)"/>
</clipPath>
</defs>
</svg>
