<svg width="25" height="24" viewBox="0 0 25 24" fill="none" xmlns="http://www.w3.org/2000/svg">
<g clip-path="url(#clip0_303_2684)">
<path d="M19.6508 12.0469C18.1 12.0469 16.8383 13.3086 16.8383 14.8594C16.8383 16.4102 18.1 17.6719 19.6508 17.6719H23.6352C23.6511 17.6719 23.6666 17.6703 23.6823 17.6695C23.6979 17.6703 23.7132 17.6719 23.729 17.6719C24.2467 17.6719 24.6665 17.2522 24.6665 16.7344V9.37502C24.6665 8.12693 24.053 7.01997 23.1123 6.33799L19.923 1.10581C19.7929 0.892438 19.5831 0.739814 19.34 0.681876C19.0969 0.623845 18.8407 0.66533 18.6284 0.797048L16.2763 2.25561L15.2156 0.46058C15.0881 0.244768 14.8795 0.0890493 14.6364 0.028112C14.3933 -0.0328254 14.1358 0.00622135 13.9216 0.136346L4.89035 5.62502H3.479C2.96989 5.62502 2.55425 5.21712 2.54178 4.71096C2.55425 4.20481 2.96989 3.7969 3.479 3.7969H5.21337C5.73115 3.7969 6.15087 3.37718 6.15087 2.8594C6.15087 2.34162 5.73115 1.92191 5.21337 1.92191H3.479C2.15253 1.92191 1.03771 2.84506 0.74291 4.0826C0.693879 4.19632 0.666504 4.32148 0.666504 4.45315V4.68753V4.7344V20.25C0.666504 22.3177 2.34875 24 4.4165 24H20.9165C22.5332 24 23.963 22.9701 24.4743 21.4373C24.6382 20.9461 24.3728 20.4151 23.8817 20.2513C23.3906 20.0875 22.8595 20.3528 22.6957 20.8439C22.4401 21.6102 21.7251 22.125 20.9165 22.125H4.4165C3.38262 22.125 2.5415 21.2839 2.5415 20.25V7.33919C2.83489 7.44325 3.15041 7.50002 3.479 7.50002H20.9165C21.9503 7.50002 22.7915 8.34114 22.7915 9.37502V12.0469H19.6508ZM22.7915 15.7969H19.6508C19.1339 15.7969 18.7133 15.3764 18.7133 14.8594C18.7133 14.3424 19.1339 13.9219 19.6508 13.9219H22.7915V15.7969ZM8.50061 5.62507L14.0843 2.23165L15.0826 3.92107C15.1018 3.96725 15.1238 4.01276 15.151 4.05664C15.1714 4.0895 15.194 4.1201 15.2176 4.14954L16.0894 5.62507H8.50061ZM18.2673 5.62502L17.2304 3.87021L18.8137 2.88842L20.4818 5.62502H18.2673Z" fill="#1D52DE"/>
</g>
<defs>
<clipPath id="clip0_303_2684">
<rect width="24" height="24" fill="white" transform="translate(0.666504)"/>
</clipPath>
</defs>
</svg>
