<svg width="48" height="48" viewBox="0 0 48 48" fill="none" xmlns="http://www.w3.org/2000/svg">
<rect x="0.5" y="0.5" width="47" height="47" rx="9.5" fill="white"/>
<path d="M31.903 20.586C31.854 20.48 31.793 20.379 31.707 20.293L25.707 14.293C25.621 14.207 25.52 14.146 25.414 14.097C25.384 14.083 25.352 14.075 25.32 14.064C25.236 14.036 25.15 14.018 25.061 14.013C25.04 14.011 25.021 14 25 14H18C16.897 14 16 14.897 16 16V32C16 33.103 16.897 34 18 34H30C31.103 34 32 33.103 32 32V21C32 20.979 31.989 20.96 31.987 20.938C31.982 20.849 31.965 20.763 31.936 20.679C31.926 20.647 31.917 20.616 31.903 20.586ZM28.586 20H26V17.414L28.586 20ZM18 32V16H24V21C24 21.553 24.447 22 25 22H30L30.002 32H18Z" fill="#1B9CAA"/>
<path d="M20 24H28V26H20V24ZM20 28H28V30H20V28ZM20 20H22V22H20V20Z" fill="#1B9CAA"/>
<rect x="0.5" y="0.5" width="47" height="47" rx="9.5" stroke="#1B9CAA"/>
</svg>
