<svg width="20" height="20" viewBox="0 0 20 20" fill="none" xmlns="http://www.w3.org/2000/svg">
<path d="M17.994 6.00259C17.8023 5.28759 17.2398 4.72342 16.5256 4.53092C15.2206 4.17259 9.99979 4.16675 9.99979 4.16675C9.99979 4.16675 4.77979 4.16092 3.47395 4.50342C2.77395 4.69425 2.19562 5.27092 2.00229 5.98509C1.65812 7.29009 1.65479 9.99675 1.65479 9.99675C1.65479 9.99675 1.65145 12.7168 1.99312 14.0084C2.18479 14.7226 2.74729 15.2868 3.46229 15.4793C4.78062 15.8376 9.98729 15.8434 9.98729 15.8434C9.98729 15.8434 15.2081 15.8493 16.5131 15.5076C17.2265 15.3159 17.7915 14.7526 17.9856 14.0384C18.3306 12.7343 18.3331 10.0284 18.3331 10.0284C18.3331 10.0284 18.3498 7.30759 17.994 6.00259ZM8.32979 12.5043L8.33395 7.50425L12.6731 10.0084L8.32979 12.5043Z" fill="#33354D"/>
</svg>
